<?xml version="1.0" encoding="UTF-8" standalone="no"?>
<!-- Created with Inkscape (http://www.inkscape.org/) -->

<svg
   xmlns:dc="http://purl.org/dc/elements/1.1/"
   xmlns:cc="http://creativecommons.org/ns#"
   xmlns:rdf="http://www.w3.org/1999/02/22-rdf-syntax-ns#"
   xmlns:svg="http://www.w3.org/2000/svg"
   xmlns="http://www.w3.org/2000/svg"
   xmlns:sodipodi="http://sodipodi.sourceforge.net/DTD/sodipodi-0.dtd"
   xmlns:inkscape="http://www.inkscape.org/namespaces/inkscape"
   width="150.714mm"
   height="150.714mm"
   viewBox="0 0 534.026 534.026"
   id="svg2"
   version="1.1"
   inkscape:version="0.91 r13725"
   sodipodi:docname="movement.svg">
  <defs
     id="defs4" />
  <sodipodi:namedview
     id="base"
     pagecolor="#ffffff"
     bordercolor="#666666"
     borderopacity="1.0"
     inkscape:pageopacity="0.0"
     inkscape:pageshadow="2"
     inkscape:zoom="0.98994949"
     inkscape:cx="236.47852"
     inkscape:cy="174.23435"
     inkscape:document-units="px"
     inkscape:current-layer="layer1"
     showgrid="false"
     units="mm"
     showguides="false"
     inkscape:window-width="1920"
     inkscape:window-height="1017"
     inkscape:window-x="-8"
     inkscape:window-y="-8"
     inkscape:window-maximized="1" />
  <metadata
     id="metadata7">
    <rdf:RDF>
      <cc:Work
         rdf:about="">
        <dc:format>image/svg+xml</dc:format>
        <dc:type
           rdf:resource="http://purl.org/dc/dcmitype/StillImage" />
        <dc:title></dc:title>
      </cc:Work>
    </rdf:RDF>
  </metadata>
  <g
     inkscape:label="Capa 1"
     inkscape:groupmode="layer"
     id="layer1"
     transform="translate(0,-518.33622)">
    <rect
       style="opacity:1;fill:#ffffff;fill-opacity:1;stroke:#000000;stroke-width:5;stroke-linecap:round;stroke-linejoin:round;stroke-miterlimit:4;stroke-dasharray:none;stroke-dashoffset:0;stroke-opacity:1"
       id="rect4202"
       width="145.71428"
       height="145.71428"
       x="-1507.8572"
       y="107.36219" />
    <g
       id="g6949"
       transform="matrix(3.992027,0,0,3.992027,9727.3665,55192.157)"
       style="fill:#000000;fill-opacity:1">
      <g
         transform="matrix(0.72596148,0,0,0.72611512,-644.22474,-3915.4014)"
         id="g6695"
         style="fill:#000000;fill-opacity:1">
        <g
           id="g6731"
           style="fill:#000000;fill-opacity:1">
          <g
             transform="matrix(1.2310725,0,0,1.2310725,649.8687,2987.0524)"
             style="fill:#000000;fill-opacity:1;stroke:#000000;stroke-width:1.37733781;stroke-opacity:1"
             id="g6679">
            <path
               style="opacity:1;fill:#000000;fill-opacity:1;stroke:#000000;stroke-width:5.50935125;stroke-linecap:round;stroke-linejoin:round;stroke-miterlimit:4;stroke-dasharray:none;stroke-dashoffset:0;stroke-opacity:1"
               d="m -2471.875,-13337.279 27.1429,0 0,25 -27.1429,0 z"
               id="rect6650"
               inkscape:connector-curvature="0" />
            <path
               style="opacity:1;fill:#000000;fill-opacity:1;stroke:#000000;stroke-width:5.50935125;stroke-linecap:round;stroke-linejoin:round;stroke-miterlimit:4;stroke-dasharray:none;stroke-dashoffset:0;stroke-opacity:1"
               inkscape:transform-center-y="-6.5722108"
               d="m -2458.3035,-13363.39 22.7668,39.433 -45.5336,0 z"
               id="path6652"
               inkscape:connector-curvature="0" />
          </g>
          <g
             style="fill:#000000;fill-opacity:1;stroke:#000000;stroke-width:1.37733781;stroke-opacity:1"
             transform="matrix(1.1730437,0,0,1.1730437,507.21637,2204.654)"
             id="g6675">
            <path
               transform="scale(-1,-1)"
               style="opacity:1;fill:#000000;fill-opacity:1;stroke:#000000;stroke-width:5.50935125;stroke-linecap:round;stroke-linejoin:round;stroke-miterlimit:4;stroke-dasharray:none;stroke-dashoffset:0;stroke-opacity:1"
               d="m 2444.7319,13236.069 27.1429,0 0,25 -27.1429,0 z"
               id="rect6654"
               inkscape:connector-curvature="0" />
            <path
               transform="scale(-1,-1)"
               style="opacity:1;fill:#000000;fill-opacity:1;stroke:#000000;stroke-width:5.50935125;stroke-linecap:round;stroke-linejoin:round;stroke-miterlimit:4;stroke-dasharray:none;stroke-dashoffset:0;stroke-opacity:1"
               inkscape:transform-center-y="6.5717934"
               d="m 2458.3035,13209.957 22.7668,39.434 -45.5336,0 z"
               id="path6657"
               inkscape:connector-curvature="0" />
          </g>
          <g
             style="fill:#000000;fill-opacity:1;stroke:#000000;stroke-width:1.37733781;stroke-opacity:1"
             transform="matrix(0,1.1297828,-1.1297828,0,-17389.533,-10599.637)"
             id="g6683">
            <path
               style="opacity:1;fill:#000000;fill-opacity:1;stroke:#000000;stroke-width:5.50935125;stroke-linecap:round;stroke-linejoin:round;stroke-miterlimit:4;stroke-dasharray:none;stroke-dashoffset:0;stroke-opacity:1"
               d="m -2471.875,-13337.279 27.1429,0 0,25 -27.1429,0 z"
               id="rect6685"
               inkscape:connector-curvature="0" />
            <path
               style="opacity:1;fill:#000000;fill-opacity:1;stroke:#000000;stroke-width:5.50935125;stroke-linecap:round;stroke-linejoin:round;stroke-miterlimit:4;stroke-dasharray:none;stroke-dashoffset:0;stroke-opacity:1"
               inkscape:transform-center-y="-6.5722108"
               d="m -2458.3035,-13363.39 22.7668,39.433 -45.5336,0 z"
               id="path6687"
               inkscape:connector-curvature="0" />
          </g>
          <g
             style="fill:#000000;fill-opacity:1;stroke:#000000;stroke-width:1.37733781;stroke-opacity:1"
             id="g6689"
             transform="matrix(0,1.1292036,-1.1297759,0,-17385.802,-10600.731)">
            <path
               transform="scale(-1,-1)"
               style="opacity:1;fill:#000000;fill-opacity:1;stroke:#000000;stroke-width:5.50935125;stroke-linecap:round;stroke-linejoin:round;stroke-miterlimit:4;stroke-dasharray:none;stroke-dashoffset:0;stroke-opacity:1"
               d="m 2444.7319,13236.069 27.1429,0 0,25 -27.1429,0 z"
               id="rect6691"
               inkscape:connector-curvature="0" />
            <path
               transform="scale(-1,-1)"
               style="opacity:1;fill:#000000;fill-opacity:1;stroke:#000000;stroke-width:5.50935125;stroke-linecap:round;stroke-linejoin:round;stroke-miterlimit:4;stroke-dasharray:none;stroke-dashoffset:0;stroke-opacity:1"
               inkscape:transform-center-y="6.5717934"
               d="m 2458.3035,13209.957 22.7668,39.434 -45.5336,0 z"
               id="path6693"
               inkscape:connector-curvature="0" />
          </g>
        </g>
      </g>
    </g>
    <g
       id="g5994"
       transform="matrix(1.1113973,0,0,1.1113973,197.01449,1061.698)"
       inkscape:export-filename="F:\Geek Game Card\sprites\Cards\card_base\spr_EnemyCard.png"
       inkscape:export-xdpi="90"
       inkscape:export-ydpi="90">
      <g
         style="opacity:1;fill:#000000;fill-opacity:1;stroke:#000000;stroke-width:31.19277191;stroke-miterlimit:4;stroke-dasharray:none;stroke-opacity:1"
         id="g3"
         transform="matrix(0.13097664,0,0,0.13097664,-1817.6395,-213.30951)">
        <path
           style="fill:#000000;fill-opacity:1;stroke:#000000;stroke-width:31.19277191;stroke-miterlimit:4;stroke-dasharray:none;stroke-opacity:1"
           id="path5"
           d="M 416.8,0 C 208.5,0.1 39.6,169 39.6,377.399 l 0,177.801 c 0,9.399 4.4,18.199 11.9,23.899 l 162.2,123.101 0,101.5 c 0,16.6 13.4,30 30,30 l 24.1,0 c 16.6,0 30,-13.4 30,-30 l 0,-41.2 c 0,-10.5 8.5,-19 19,-19 l 0,0 c 10.5,0 19,8.5 19,19 l 0,41.2 c 0,16.6 13.4,30 30,30 l 1,0 c 16.6,0 30,-13.4 30,-30 l 0,-41.2 c 0,-10.5 8.5,-19 19,-19 l 2,0 c 10.5,0 19,8.5 19,19 l 0,41.2 c 0,16.6 13.4,30 30,30 l 1,0 c 16.6,0 30,-13.4 30,-30 l 0,-41.2 c 0,-10.5 8.5,-19 19,-19 l 0,0 c 10.5,0 19,8.5 19,19 l 0,41.2 c 0,16.6 13.4,30 30,30 l 24.2,0 c 16.6,0 30,-13.4 30,-30 L 620,702.1 782.2,579 c 7.5,-5.7 11.899,-14.5 11.899,-23.9 l 0,-177.8 C 794,169 625.1,0.1 416.8,0 Z M 259.1,558.1 c -57.4,0 -104,-46.6 -104,-104 0,-57.399 46.6,-104 104,-104 57.4,0 104,46.601 104,104 0,57.5 -46.6,104 -104,104 z m 187.3,76.5 -59.1,0 c -13.7,0 -22.4,-14.7 -15.8,-26.7 l 29.6,-53.699 c 6.8,-12.4 24.7,-12.4 31.5,0 l 29.601,53.699 c 6.5,11.999 -2.201,26.7 -15.801,26.7 z m 128.1,-76.5 c -57.4,0 -104,-46.6 -104,-104 0,-57.399 46.6,-104 104,-104 57.399,0 104,46.601 104,104 0,57.5 -46.5,104 -104,104 z"
           inkscape:connector-curvature="0" />
      </g>
    </g>
    <g
       id="g7005"
       transform="translate(366.66729,14307.422)">
      <rect
         transform="matrix(0.99999986,-5.3487548e-4,-4.8399782e-4,0.99999988,0,0)"
         style="opacity:1;fill:#000000;fill-opacity:1;stroke:#000000;stroke-width:2.99189806;stroke-linecap:round;stroke-linejoin:round;stroke-miterlimit:4;stroke-dasharray:none;stroke-dashoffset:0;stroke-opacity:1"
         id="rect6847"
         width="25.131721"
         height="5.5116849"
         x="-2214.7266"
         y="-13251.239" />
      <path
         id="rect6831"
         d="m -2072.3477,-13254.119 -19.6484,0 c -0.4462,4.65 -1.0709,9.275 -1.8945,13.543 l 21.5351,-0.01 16.168,-7.102 -16.1602,-6.439 z m -96.9511,0.04 -21.545,0.01 0,13.541 23.4434,-0.01 c -0.8245,-4.266 -1.4514,-8.89 -1.8984,-13.541 z"
         style="opacity:1;fill:#000000;fill-opacity:1;stroke:#000000;stroke-width:2.47162223;stroke-linecap:round;stroke-linejoin:round;stroke-miterlimit:4;stroke-dasharray:none;stroke-dashoffset:0;stroke-opacity:1"
         inkscape:connector-curvature="0" />
      <rect
         transform="matrix(4.8399782e-4,-0.99999988,0.99999986,-5.3487548e-4,0,0)"
         y="-2201.4846"
         x="13234.11"
         height="5.4163818"
         width="27.406311"
         id="rect6845"
         style="opacity:1;fill:#000000;fill-opacity:1;stroke:#000000;stroke-width:3.09722948;stroke-linecap:round;stroke-linejoin:round;stroke-miterlimit:4;stroke-dasharray:none;stroke-dashoffset:0;stroke-opacity:1" />
      <path
         inkscape:connector-curvature="0"
         id="path6853"
         d="m -2177.2129,-13291.113 c 0,0 -3.7812,50.011 8.334,70.213 7.9778,13.303 38.1032,26.55 38.2207,26.602 l 0,0 0.01,0 0.01,0 0,0 c 0.1174,-0.05 30.2429,-13.299 38.2207,-26.602 12.1152,-20.202 8.334,-70.213 8.334,-70.213 0,0 -20.5756,18.692 -33.3379,18.875 -4.9533,0.07 -13.1009,-6.885 -13.2168,-6.984 l 0,-0.02 c 0,0 -0.01,0 -0.01,0.01 -2e-4,0 -0.01,-0.01 -0.01,-0.01 l 0,0.02 c -0.1158,0.1 -8.2635,7.055 -13.2168,6.984 -12.7623,-0.183 -33.3379,-18.875 -33.3379,-18.875 z m 7.0918,15.311 c 0.1571,0.113 0.2825,0.217 0.4414,0.328 7.1924,5.011 15.6615,10.725 25.6953,10.869 6.0951,0.09 9.5546,-2.617 12.6895,-4.662 0.2582,-0.169 0.4001,-0.297 0.6465,-0.463 0.247,0.168 0.3875,0.294 0.6464,0.463 3.135,2.046 6.5945,4.752 12.6895,4.662 10.034,-0.144 18.5029,-5.858 25.6953,-10.869 0.1583,-0.111 0.2847,-0.214 0.4414,-0.324 0.032,3.645 0.017,7.592 -0.1465,11.925 -0.5509,14.547 -3.1794,31.622 -7.6269,39.039 -2.383,3.973 -11.2315,10.865 -19.3594,15.604 -4.0639,2.371 -7.9413,4.372 -10.7852,5.768 -0.6475,0.32 -1.0123,0.484 -1.5429,0.738 -2.752,-1.299 -6.9292,-3.342 -12.3516,-6.504 -8.1279,-4.74 -16.9764,-11.633 -19.3594,-15.606 -4.4477,-7.417 -7.0761,-24.492 -7.6269,-39.039 -0.1638,-4.333 -0.1795,-8.281 -0.1465,-11.929 z"
         style="opacity:1;fill:#000000;fill-opacity:1;stroke:#000000;stroke-width:2.40575504;stroke-linecap:round;stroke-linejoin:round;stroke-miterlimit:4;stroke-dasharray:none;stroke-dashoffset:0;stroke-opacity:1" />
      <path
         transform="matrix(0.52555743,0,0,0.52662814,-881.52431,-6435.9657)"
         d="m -2440.5098,-12967.49 c 0.021,0.62 -0,1.111 0.021,1.74 0.505,13.307 1.983,27.898 4.3028,40.562 2.3197,12.665 5.8421,23.624 8.6328,28.268 0.6015,1.001 5.4833,6.342 11.7129,11.301 6.2295,4.958 13.9615,10.247 21.1855,14.451 7.4688,4.346 13.1365,7.232 17.8828,9.555 5.0482,-2.509 11.1977,-5.653 17.9063,-9.557 7.224,-4.203 14.956,-9.491 21.1855,-14.449 6.2295,-4.958 11.1115,-10.3 11.7129,-11.301 2.7907,-4.644 6.3131,-15.603 8.6328,-28.268 2.3197,-12.664 3.7977,-27.255 4.3028,-40.562 0.024,-0.629 9e-4,-1.12 0.021,-1.74 -10.8605,6.277 -23.3834,11.665 -38.2168,11.877 -11.2535,0.161 -19.7401,-3.987 -25.5332,-7.533 -5.7918,3.546 -14.279,7.694 -25.5312,7.533 -14.8341,-0.212 -27.358,-5.6 -38.2188,-11.877 z"
         id="path6851"
         style="opacity:1;fill:#000000;fill-opacity:1;stroke:#000000;stroke-width:4.57287455;stroke-linecap:round;stroke-linejoin:round;stroke-miterlimit:4;stroke-dasharray:none;stroke-dashoffset:0;stroke-opacity:1"
         inkscape:original="M -2451.8672 -12987.979 C -2451.9292 -12981.055 -2451.9002 -12973.557 -2451.5879 -12965.328 C -2450.5397 -12937.705 -2445.5368 -12905.282 -2437.0742 -12891.199 C -2432.5398 -12883.653 -2415.7055 -12870.567 -2400.2402 -12861.568 C -2389.923 -12855.564 -2381.9728 -12851.684 -2376.7363 -12849.219 C -2375.7267 -12849.7 -2375.0326 -12850.012 -2373.8008 -12850.617 C -2368.3897 -12853.27 -2361.012 -12857.07 -2353.2793 -12861.57 C -2337.8139 -12870.568 -2320.9796 -12883.653 -2316.4453 -12891.199 C -2307.9827 -12905.282 -2302.9799 -12937.705 -2301.9316 -12965.328 C -2301.6194 -12973.556 -2301.5904 -12981.054 -2301.6523 -12987.977 C -2301.9506 -12987.767 -2302.1907 -12987.57 -2302.4922 -12987.361 C -2316.1771 -12977.844 -2332.2929 -12966.992 -2351.3848 -12966.719 C -2362.9821 -12966.553 -2369.564 -12971.689 -2375.5293 -12975.574 C -2376.0218 -12975.894 -2376.29 -12976.134 -2376.7598 -12976.451 C -2377.2286 -12976.135 -2377.497 -12975.896 -2377.9883 -12975.576 C -2383.9532 -12971.692 -2390.5355 -12966.553 -2402.1328 -12966.719 C -2421.2247 -12966.992 -2437.34 -12977.844 -2451.0254 -12987.361 C -2451.3277 -12987.571 -2451.5682 -12987.769 -2451.8672 -12987.979 z "
         inkscape:radius="-11.107304"
         sodipodi:type="inkscape:offset" />
    </g>
    <path
       style="opacity:1;fill:#000000;fill-opacity:1;stroke:#000000;stroke-width:2.38581276;stroke-linecap:round;stroke-linejoin:round;stroke-miterlimit:4;stroke-dasharray:none;stroke-dashoffset:0;stroke-opacity:1"
       d="m -1772.6397,1181.033 c -33.0547,0 -59.8511,26.796 -59.8503,59.851 6e-4,33.054 26.7965,59.849 59.8503,59.848 33.0532,0 59.8482,-26.795 59.8488,-59.848 8e-4,-33.054 -26.7946,-59.851 -59.8488,-59.851 z m 0,5.696 c 29.9086,0 54.154,24.246 54.1529,54.155 -4e-4,29.907 -24.2454,54.152 -54.1529,54.152 -29.9075,0 -54.1525,-24.245 -54.1529,-54.152 0,-29.909 24.2443,-54.155 54.1529,-54.155 z"
       id="path6871"
       inkscape:connector-curvature="0"
       sodipodi:nodetypes="cscscscscs" />
    <path
       style="opacity:1;fill:#000000;fill-opacity:1;stroke:#000000;stroke-width:2.385813;stroke-linecap:round;stroke-linejoin:round;stroke-miterlimit:4;stroke-dasharray:none;stroke-dashoffset:0;stroke-opacity:1"
       d="m -1773.3818,1198.785 c -2.7815,0 -5.0216,2.391 -5.0216,5.36 l 0,37.156 c 0,0.06 0.01,0.12 0.01,0.181 0,0.06 -0.01,0.106 -0.01,0.16 0,1.329 0.5509,2.533 1.446,3.429 0.025,0.02 0.051,0.06 0.076,0.08 0.022,0.02 0.044,0.05 0.067,0.06 0.8969,0.897 2.1012,1.449 3.4327,1.449 0.054,0 0.1063,0 0.16,0 0.06,0 0.1194,0 0.1802,0 l 37.1556,0 c 2.9702,0 5.3619,-2.24 5.3619,-5.021 0,-2.782 -2.3917,-5.021 -5.3619,-5.021 l -32.4757,0 0,-32.476 c 0,-2.969 -2.2385,-5.36 -5.0201,-5.36 z"
       id="rect6876"
       inkscape:connector-curvature="0" />
    <path
       style="opacity:1;fill:#000000;fill-opacity:1;stroke:none;stroke-width:4;stroke-linecap:round;stroke-linejoin:round;stroke-miterlimit:4;stroke-dasharray:none;stroke-dashoffset:0;stroke-opacity:1"
       d="m 1370.1451,714.49792 -1.5702,0.31995 1.7654,0.56794 -0.196,-0.90388 z m -25.9656,9.22286 -0.04,0.0801 0.392,0 -0.3599,-0.11998 z m -74.7407,12.21049 -47.3221,10.07076 -19.99,382.92067 62.2895,3.2556 -55.3839,-17.9978 a 8.0010367,7.9985846 62.990712 0 1 -5.1322,-10.0828 l 118.5945,-365.39077 -53.0558,-2.77566 z m 69.593,3.63955 -117.4463,361.86328 104.5103,33.9558 127.7578,-27.1927 -77.9668,-366.69462 -36.855,-1.93176 z m -133.1083,9.88278 -113.6816,24.193 83.7085,393.6994 89.6685,-19.0817 -72.3191,-3.7796 a 8.0000285,7.9995933 47.992751 0 1 -7.5695,-8.4069 l 20.1932,-386.6242 z"
       id="rect7014"
       inkscape:connector-curvature="0" />
    <path
       style="opacity:1;fill:#000000;fill-opacity:1;stroke:none;stroke-width:4;stroke-linecap:round;stroke-linejoin:round;stroke-miterlimit:4;stroke-dasharray:none;stroke-dashoffset:0;stroke-opacity:1"
       d="m 1215.2035,727.0544 -21.4817,411.4131 126.2967,6.5992 -110.9862,-36.0595 a 8.0010367,7.9985846 62.990712 0 1 -5.1322,-10.0828 l 118.8761,-366.24269 -107.5727,-5.62731 z m 124.1095,6.49121 -117.7275,362.71509 160.1442,52.0336 95.7226,5.0074 20.1067,-384.9164 -97.4488,-31.66009 -60.7972,-3.1796 z m 122.4928,6.3992 36.6127,11.89852 0.5231,-9.95476 -37.1358,-1.94376 z"
       id="rect7016"
       inkscape:connector-curvature="0" />
    <rect
       transform="matrix(0.95105772,0.30901329,-0.30872176,0.95115239,0,0)"
       y="260.01892"
       x="1492.3561"
       height="413.10236"
       width="284.1387"
       id="rect7018"
       style="opacity:1;fill:#000000;fill-opacity:1;stroke:none;stroke-width:4;stroke-linecap:round;stroke-linejoin:round;stroke-miterlimit:4;stroke-dasharray:none;stroke-dashoffset:0;stroke-opacity:1" />
    <rect
       style="opacity:1;fill:#000000;fill-opacity:1;stroke:none;stroke-width:3;stroke-linecap:round;stroke-linejoin:round;stroke-miterlimit:4;stroke-dasharray:none;stroke-dashoffset:0;stroke-opacity:1"
       id="rect7048"
       width="6.5659914"
       height="110.10662"
       x="-1383.1613"
       y="1781.8285"
       transform="matrix(0.96592583,0.25881905,-0.25881905,0.96592583,0,0)" />
    <path
       style="opacity:1;fill:#000000;fill-opacity:1;stroke:none;stroke-width:3;stroke-linecap:round;stroke-linejoin:round;stroke-miterlimit:4;stroke-dasharray:none;stroke-dashoffset:0;stroke-opacity:1"
       d="m -1796.3673,1366.644 c 33.777,-2.904 34.4153,40.939 80.4236,5.303 l -15.6574,65.155 c -36.2508,28.047 -40.143,-13.925 -80.4236,-5.303 z"
       id="rect7050"
       inkscape:connector-curvature="0"
       sodipodi:nodetypes="ccccc" />
  </g>
</svg>
